<svg id="Layer_1" data-name="Layer 1" xmlns="http://www.w3.org/2000/svg" viewBox="0 0 64 64"><defs><style>.cls-1{fill:#fff;}</style></defs><title>icon</title><path class="cls-1" d="M55,45.45c-1-2.15-5-6-5.75-8.37-.63-2,0-8.44,0-8.44,0-8.25-4.72-15.16-12.94-17V9.83a4.32,4.32,0,0,0-8.62,0v1.83c-8.25,1.82-12.94,8.7-12.94,17,0,0,.62,6.42,0,8.44C14,39.5,9.31,42.94,9,45.45c-1,2.85,1,6.85,4,6.85H25c0,3,3.11,5.9,7,5.9s7-3,7-5.9H51C55,52.3,56,48.3,55,45.45ZM31.63,56.25A7.86,7.86,0,0,1,27,51.61L28.9,51a5.89,5.89,0,0,0,3.37,3.37Z"/></svg>