<svg id="Layer_1" data-name="Layer 1" xmlns="http://www.w3.org/2000/svg" viewBox="0 0 64 64"><defs><style>.cls-1{fill:#fff;}</style></defs><title>icon</title><path class="cls-1" d="M55,15.91V48.09c0,.12-.07.23-.1.35a8,8,0,0,1-5.85,6.32c-.32.1-.64.16-1,.24H39.2c0-.13,0-.27,0-.4v-17h.47c2.25,0,4.51,0,6.76,0,.32,0,.44-.07.44-.43,0-2.27,0-4.55,0-6.83,0-.13,0-.26,0-.44H39.2c0-1.18-.05-2.32,0-3.46A1.62,1.62,0,0,1,41,24.85h5.29l.47,0V17.17h-6a7.64,7.64,0,0,0-4.54,1.44,9.69,9.69,0,0,0-4.09,6.69A37,37,0,0,0,32,29.52V30H26.4c0,.12,0,.21,0,.29,0,2.34,0,4.68,0,7,0,.31.14.35.4.35H32V55H15.91l-.31-.09a8,8,0,0,1-6.36-5.86c-.1-.32-.16-.64-.24-1V15.91c0-.17.09-.33.13-.49a7.94,7.94,0,0,1,5.72-6.15c.34-.11.7-.18,1.06-.27H48.09l.28.08A8,8,0,0,1,54.77,15C54.86,15.29,54.92,15.6,55,15.91Z"/></svg>