<svg id="Layer_1" data-name="Layer 1" xmlns="http://www.w3.org/2000/svg" viewBox="0 0 64 64"><defs><style>.cls-1{fill:#fff;}</style></defs><title>icon</title><path class="cls-1" d="M35,16.4l-5.33,6C21,16.26,12.21,20.7,9.52,26.66A12.5,12.5,0,0,0,16.8,43.73c5.59,1.91,13.51.45,15.24-7l-12.18,0v-8s14.34,0,20.78,0C42.16,39.14,37.67,50,25,52.32A21.21,21.21,0,0,1,1,37.65,20.68,20.68,0,0,1,18.35,11.49,21.67,21.67,0,0,1,35,16.4Z"/><path class="cls-1" d="M57.17,35.23v6.14H52V35.25H45.66V29.9h6.26V23.71h5.2v6.18h6.74v5.35Z"/></svg>