<svg id="Layer_1" data-name="Layer 1" xmlns="http://www.w3.org/2000/svg" viewBox="0 0 100 100"><defs><style>.cls-1{fill:#fff;}</style></defs><title>icon</title><polygon class="cls-1" points="91 99 9 99 9 41 12 39 12 96 88 96 88 39 91 41 91 99"/><path class="cls-1" d="M63,98H60V60a2.45,2.45,0,0,0-2.45-2.45H41A2.45,2.45,0,0,0,38.5,60V98h-3V60A5.46,5.46,0,0,1,41,54.5h16.6A5.46,5.46,0,0,1,63,60Z"/><polygon class="cls-1" points="84 32.5 81 32.5 81 13 70 13 70 20 67 18.5 67 10 84 10 84 32.5"/><path class="cls-1" d="M95.38,46.58,51,5.49a1.51,1.51,0,0,0-2,0L4.62,46.58A1.5,1.5,0,0,1,2.5,46.5h0a1.5,1.5,0,0,1,.08-2.12L49,1.4a1.51,1.51,0,0,1,2,0l46.4,43a1.5,1.5,0,0,1,.08,2.12h0A1.5,1.5,0,0,1,95.38,46.58Z"/></svg>