<svg id="Layer_1" data-name="Layer 1" xmlns="http://www.w3.org/2000/svg" viewBox="0 0 64 64"><defs><style>.cls-1{fill:#fff;}</style></defs><title>icon</title><path class="cls-1" d="M24.66,22.94h8.65l.48,4.45L34.1,27A11.57,11.57,0,0,1,45,22.26a10,10,0,0,1,7.2,3.65,12.66,12.66,0,0,1,2.69,6.47,33.78,33.78,0,0,1,.29,4.27c0,5.81,0,11.62,0,17.43,0,.77,0,.77-.74.77H45.93c-.23,0-.45,0-.72-.05v-.73c0-5.54,0-11.09,0-16.63a16.77,16.77,0,0,0-.4-3.46,4.22,4.22,0,0,0-3.36-3.55,5,5,0,0,0-5.25,1.84,6,6,0,0,0-1.3,3.93q0,9,0,18c0,.69,0,.69-.7.69-2.88,0-5.76,0-8.64,0-.54,0-.68-.15-.68-.69q0-12.39,0-24.79c0-1.93-.12-3.85-.19-5.77C24.65,23.4,24.66,23.19,24.66,22.94Z"/><path class="cls-1" d="M19.09,38.9V54.16c0,.69,0,.69-.71.69-2.88,0-5.75,0-8.63,0-.53,0-.68-.13-.68-.68q0-15.3,0-30.61c0-.55.16-.67.68-.66,2.86,0,5.72,0,8.58,0,.75,0,.76,0,.76.73Z"/><path class="cls-1" d="M14.15,9.15a4.85,4.85,0,0,1,5.18,4.26,4.88,4.88,0,0,1-4.23,5.65,5.3,5.3,0,0,1-5-1.59,4.87,4.87,0,0,1-.83-5.39,4.78,4.78,0,0,1,4.31-2.93A5.81,5.81,0,0,1,14.15,9.15Z"/></svg>