<svg id="Layer_1" data-name="Layer 1" xmlns="http://www.w3.org/2000/svg" viewBox="0 0 64 64"><defs><style>.cls-1{fill:#fff;}</style></defs><title>icon</title><path class="cls-1" d="M58.37,15.64c-.44.59-.81,1.13-1.21,1.62a22,22,0,0,1-3.78,3.63.79.79,0,0,0-.37.75,31.55,31.55,0,0,1-6.1,19.47A28.79,28.79,0,0,1,34,51.3a31.39,31.39,0,0,1-12.9,2.18A30.3,30.3,0,0,1,9.4,50.75c-1.29-.59-2.53-1.31-3.77-2a22.38,22.38,0,0,0,15.86-4.55,11.1,11.1,0,0,1-10.12-7.58,11.39,11.39,0,0,0,4.86-.2A10.89,10.89,0,0,1,10,32.54a10.64,10.64,0,0,1-2.38-6.92,10.51,10.51,0,0,0,4.74,1.28,10.93,10.93,0,0,1-4.59-7.76A10.55,10.55,0,0,1,9.15,12.5,31.11,31.11,0,0,0,31.5,23.83c-.07-.67-.15-1.28-.19-1.89a10.06,10.06,0,0,1,1.81-6.65A10.58,10.58,0,0,1,43.5,10.58a10.28,10.28,0,0,1,6.21,3,.74.74,0,0,0,.79.22,22.28,22.28,0,0,0,5.9-2.23c.13-.08.28-.15.51-.27a9.75,9.75,0,0,1-1.76,3.35,11.06,11.06,0,0,1-2.75,2.49l.05.13c1-.21,2-.37,2.95-.64S57.31,16,58.37,15.64Z"/></svg>