<svg id="Layer_1" data-name="Layer 1" xmlns="http://www.w3.org/2000/svg" viewBox="0 0 64 64"><defs><style>.cls-1{fill:#fff;}</style></defs><title>icon</title><path class="cls-1" d="M60.32,20.75v22.5c-.12.1-.12.25-.15.4a9.63,9.63,0,0,1-7.62,7.76c-.19,0-.4,0-.55.18H11.94a.44.44,0,0,0-.31-.15c-.25-.06-.51-.1-.75-.17a9.49,9.49,0,0,1-7.06-7.69c0-.12,0-.25-.14-.33V20.75c.14-.12.13-.3.16-.46a9.65,9.65,0,0,1,7.61-7.7c.17,0,.36,0,.49-.18H52c.24.21.54.17.81.24a9.52,9.52,0,0,1,7.38,7.8A.42.42,0,0,0,60.32,20.75ZM27.81,39.68c0,.13,0,.29.07.36s.23,0,.33-.12l12.54-7.79c.2-.12.2-.18,0-.31l-.07,0L28.17,24.09c-.37-.22-.37-.21-.37.23C27.8,26.88,27.8,37.12,27.81,39.68Z"/></svg>